<svg width="102" height="10" viewBox="0 0 102 10" fill="none" xmlns="http://www.w3.org/2000/svg">
<rect width="102" height="10" fill="white"/>
<path d="M5.448 3.288C5.376 2.84 5.248 2.468 5.064 2.172C4.88 1.868 4.644 1.64 4.356 1.488C4.076 1.336 3.748 1.264 3.372 1.272C3.028 1.272 2.724 1.368 2.46 1.56C2.204 1.752 2.076 2 2.076 2.304C2.076 2.552 2.144 2.768 2.28 2.952C2.424 3.136 2.64 3.308 2.928 3.468C3.216 3.628 3.58 3.8 4.02 3.984C4.324 4.104 4.636 4.244 4.956 4.404C5.276 4.564 5.572 4.756 5.844 4.98C6.116 5.196 6.336 5.452 6.504 5.748C6.672 6.036 6.756 6.376 6.756 6.768C6.756 7.24 6.628 7.66 6.372 8.028C6.116 8.396 5.756 8.684 5.292 8.892C4.836 9.092 4.3 9.192 3.684 9.192C3.364 9.192 3.016 9.14 2.64 9.036C2.272 8.94 1.924 8.796 1.596 8.604L1.632 9.108H0.708V6.3H1.5C1.612 6.972 1.868 7.48 2.268 7.824C2.676 8.16 3.16 8.328 3.72 8.328C4.008 8.328 4.26 8.276 4.476 8.172C4.692 8.068 4.86 7.932 4.98 7.764C5.1 7.588 5.16 7.4 5.16 7.2C5.16 6.92 5.06 6.688 4.86 6.504C4.668 6.32 4.424 6.164 4.128 6.036C3.84 5.908 3.544 5.784 3.24 5.664C2.856 5.504 2.496 5.336 2.16 5.16C1.832 4.976 1.544 4.768 1.296 4.536C1.048 4.304 0.856 4.04 0.72 3.744C0.584 3.44 0.516 3.092 0.516 2.7C0.516 2.452 0.564 2.196 0.66 1.932C0.756 1.66 0.912 1.412 1.128 1.188C1.344 0.956 1.632 0.768 1.992 0.624C2.352 0.48 2.796 0.408 3.324 0.408C3.644 0.408 3.992 0.456 4.368 0.551999C4.752 0.648 5.08 0.792 5.352 0.983999L5.304 0.491999H6.24V3.288H5.448ZM13.9759 3.312C13.9759 2.88 13.9159 2.524 13.7959 2.244C13.6759 1.956 13.5039 1.744 13.2799 1.608C13.0639 1.464 12.8039 1.396 12.4999 1.404H11.9239V7.032C11.9239 7.248 11.9199 7.456 11.9119 7.656C11.9039 7.856 11.8919 8.008 11.8759 8.112C12.0119 8.096 12.1839 8.088 12.3919 8.088C12.6079 8.08 12.7559 8.076 12.8359 8.076V9H9.33188V8.208C9.51588 8.2 9.66788 8.176 9.78788 8.136C9.91588 8.096 10.0119 8.004 10.0759 7.86C10.1479 7.716 10.1839 7.484 10.1839 7.164V1.416H9.63188C9.17588 1.424 8.81588 1.58 8.55188 1.884C8.28788 2.188 8.15588 2.664 8.15588 3.312H7.36388L7.42388 0.599999H14.6959L14.7679 3.312H13.9759ZM19.6566 6.108C19.6566 5.772 19.6046 5.528 19.5006 5.376C19.3966 5.224 19.2526 5.132 19.0686 5.1C18.8926 5.06 18.6966 5.044 18.4806 5.052L18.1686 5.064V7.032C18.1686 7.248 18.1646 7.452 18.1566 7.644C18.1486 7.836 18.1366 7.984 18.1206 8.088H19.7286C19.9686 8.088 20.2006 8.036 20.4246 7.932C20.6486 7.82 20.8326 7.64 20.9766 7.392C21.1206 7.136 21.1926 6.792 21.1926 6.36H21.9726L21.9126 9H15.5766V8.208C15.7606 8.2 15.9126 8.176 16.0326 8.136C16.1606 8.096 16.2566 8.004 16.3206 7.86C16.3926 7.716 16.4286 7.484 16.4286 7.164V2.568C16.4286 2.352 16.4326 2.144 16.4406 1.944C16.4566 1.744 16.4686 1.592 16.4766 1.488C16.3486 1.496 16.1886 1.504 15.9966 1.512C15.8046 1.512 15.6646 1.516 15.5766 1.524V0.599999H21.5766L21.6486 2.928H20.8566C20.8566 2.488 20.7806 2.156 20.6286 1.932C20.4766 1.708 20.2886 1.56 20.0646 1.488C19.8406 1.408 19.6206 1.372 19.4046 1.38L18.9726 1.392C18.8046 1.392 18.6606 1.416 18.5406 1.464C18.4206 1.504 18.3286 1.6 18.2646 1.752C18.2006 1.896 18.1686 2.124 18.1686 2.436V4.236H19.5726L19.5246 3.192H20.4486V6.108H19.6566ZM29.2688 3.312C29.2688 2.88 29.2088 2.524 29.0888 2.244C28.9688 1.956 28.7968 1.744 28.5728 1.608C28.3568 1.464 28.0968 1.396 27.7928 1.404H27.2168V7.032C27.2168 7.248 27.2128 7.456 27.2048 7.656C27.1968 7.856 27.1848 8.008 27.1688 8.112C27.3048 8.096 27.4768 8.088 27.6848 8.088C27.9008 8.08 28.0488 8.076 28.1288 8.076V9H24.6248V8.208C24.8088 8.2 24.9608 8.176 25.0808 8.136C25.2088 8.096 25.3048 8.004 25.3688 7.86C25.4408 7.716 25.4768 7.484 25.4768 7.164V1.416H24.9248C24.4688 1.424 24.1088 1.58 23.8448 1.884C23.5808 2.188 23.4488 2.664 23.4488 3.312H22.6568L22.7168 0.599999H29.9888L30.0608 3.312H29.2688ZM35.7175 3.288C35.6455 2.84 35.5175 2.468 35.3335 2.172C35.1495 1.868 34.9135 1.64 34.6255 1.488C34.3455 1.336 34.0175 1.264 33.6415 1.272C33.2975 1.272 32.9935 1.368 32.7295 1.56C32.4735 1.752 32.3455 2 32.3455 2.304C32.3455 2.552 32.4135 2.768 32.5495 2.952C32.6935 3.136 32.9095 3.308 33.1975 3.468C33.4855 3.628 33.8495 3.8 34.2895 3.984C34.5935 4.104 34.9055 4.244 35.2255 4.404C35.5455 4.564 35.8415 4.756 36.1135 4.98C36.3855 5.196 36.6055 5.452 36.7735 5.748C36.9415 6.036 37.0255 6.376 37.0255 6.768C37.0255 7.24 36.8975 7.66 36.6415 8.028C36.3855 8.396 36.0255 8.684 35.5615 8.892C35.1055 9.092 34.5695 9.192 33.9535 9.192C33.6335 9.192 33.2855 9.14 32.9095 9.036C32.5415 8.94 32.1935 8.796 31.8655 8.604L31.9015 9.108H30.9775V6.3H31.7695C31.8815 6.972 32.1375 7.48 32.5375 7.824C32.9455 8.16 33.4295 8.328 33.9895 8.328C34.2775 8.328 34.5295 8.276 34.7455 8.172C34.9615 8.068 35.1295 7.932 35.2495 7.764C35.3695 7.588 35.4295 7.4 35.4295 7.2C35.4295 6.92 35.3295 6.688 35.1295 6.504C34.9375 6.32 34.6935 6.164 34.3975 6.036C34.1095 5.908 33.8135 5.784 33.5095 5.664C33.1255 5.504 32.7655 5.336 32.4295 5.16C32.1015 4.976 31.8135 4.768 31.5655 4.536C31.3175 4.304 31.1255 4.04 30.9895 3.744C30.8535 3.44 30.7855 3.092 30.7855 2.7C30.7855 2.452 30.8335 2.196 30.9295 1.932C31.0255 1.66 31.1815 1.412 31.3975 1.188C31.6135 0.956 31.9015 0.768 32.2615 0.624C32.6215 0.48 33.0655 0.408 33.5935 0.408C33.9135 0.408 34.2615 0.456 34.6375 0.551999C35.0215 0.648 35.3495 0.792 35.6215 0.983999L35.5735 0.491999H36.5095V3.288H35.7175ZM42.0374 9.192C41.2774 9.192 40.6294 9.064 40.0934 8.808C39.5654 8.552 39.1374 8.212 38.8094 7.788C38.4814 7.356 38.2414 6.88 38.0894 6.36C37.9374 5.84 37.8614 5.32 37.8614 4.8C37.8614 4.296 37.9454 3.788 38.1134 3.276C38.2894 2.756 38.5494 2.28 38.8934 1.848C39.2454 1.416 39.6854 1.068 40.2134 0.804C40.7414 0.54 41.3614 0.408 42.0734 0.408C42.8014 0.408 43.4294 0.54 43.9574 0.804C44.4854 1.068 44.9174 1.42 45.2534 1.86C45.5894 2.292 45.8374 2.764 45.9974 3.276C46.1654 3.788 46.2494 4.296 46.2494 4.8C46.2494 5.296 46.1614 5.8 45.9854 6.312C45.8174 6.824 45.5574 7.3 45.2054 7.74C44.8614 8.172 44.4254 8.524 43.8974 8.796C43.3694 9.06 42.7494 9.192 42.0374 9.192ZM42.1694 8.316C42.5854 8.316 42.9334 8.216 43.2134 8.016C43.4934 7.808 43.7174 7.54 43.8854 7.212C44.0534 6.884 44.1734 6.528 44.2454 6.144C44.3174 5.752 44.3534 5.372 44.3534 5.004C44.3534 4.452 44.3054 3.948 44.2094 3.492C44.1134 3.036 43.9654 2.644 43.7654 2.316C43.5654 1.98 43.3094 1.724 42.9974 1.548C42.6934 1.364 42.3334 1.276 41.9174 1.284C41.5094 1.292 41.1654 1.404 40.8854 1.62C40.6054 1.828 40.3814 2.1 40.2134 2.436C40.0454 2.764 39.9254 3.124 39.8534 3.516C39.7814 3.908 39.7454 4.288 39.7454 4.656C39.7454 5.032 39.7854 5.432 39.8654 5.856C39.9534 6.28 40.0894 6.68 40.2734 7.056C40.4574 7.432 40.7054 7.736 41.0174 7.968C41.3294 8.2 41.7134 8.316 42.1694 8.316ZM53.5074 9.12L49.6674 4.212C49.5634 4.076 49.4554 3.932 49.3434 3.78C49.2314 3.628 49.1194 3.472 49.0074 3.312H48.9954L49.0194 7.032C49.0194 7.248 49.0154 7.456 49.0074 7.656C48.9994 7.856 48.9874 8.008 48.9714 8.112C49.0994 8.096 49.2594 8.088 49.4514 8.088C49.6514 8.08 49.7914 8.076 49.8714 8.076V9H47.1354V8.208C47.3194 8.2 47.4714 8.176 47.5914 8.136C47.7194 8.096 47.8154 8.004 47.8794 7.86C47.9514 7.716 47.9874 7.484 47.9874 7.164L47.9634 2.568C47.9634 2.352 47.9674 2.144 47.9754 1.944C47.9834 1.744 47.9954 1.592 48.0114 1.488C47.8834 1.496 47.7194 1.504 47.5194 1.512C47.3274 1.512 47.1874 1.516 47.0994 1.524V0.599999H48.9834L52.6554 5.232C52.8554 5.488 53.0194 5.708 53.1474 5.892C53.2834 6.076 53.3994 6.236 53.4954 6.372H53.5074V2.568C53.5074 2.352 53.5114 2.144 53.5194 1.944C53.5274 1.744 53.5354 1.592 53.5434 1.488C53.4154 1.496 53.2554 1.504 53.0634 1.512C52.8714 1.512 52.7314 1.516 52.6434 1.524V0.599999H55.3794V1.392C55.2034 1.4 55.0514 1.424 54.9234 1.464C54.7954 1.504 54.6954 1.596 54.6234 1.74C54.5594 1.876 54.5274 2.108 54.5274 2.436V9.12H53.5074ZM59.557 9V8.208C59.741 8.2 59.893 8.176 60.013 8.136C60.141 8.096 60.237 8.004 60.301 7.86C60.373 7.716 60.409 7.484 60.409 7.164V2.568C60.409 2.352 60.413 2.144 60.421 1.944C60.437 1.744 60.449 1.592 60.457 1.488C60.329 1.496 60.169 1.504 59.977 1.512C59.785 1.512 59.645 1.516 59.557 1.524V0.599999H63.001V1.392C62.825 1.4 62.673 1.424 62.545 1.464C62.417 1.504 62.317 1.596 62.245 1.74C62.181 1.876 62.149 2.108 62.149 2.436V7.032C62.149 7.248 62.145 7.452 62.137 7.644C62.129 7.836 62.117 7.984 62.101 8.088H63.709C64.181 8.088 64.549 7.924 64.813 7.596C65.085 7.268 65.221 6.776 65.221 6.12H66.025L65.953 9H59.557ZM66.3996 9V8.172C66.6236 8.172 66.8036 8.108 66.9396 7.98C67.0756 7.852 67.1876 7.684 67.2756 7.476C67.3716 7.268 67.4636 7.044 67.5516 6.804L69.8916 0.383999H70.7316L73.2876 6.924C73.3356 7.044 73.3996 7.228 73.4796 7.476C73.5596 7.716 73.6076 7.928 73.6236 8.112C73.7596 8.096 73.8876 8.088 74.0076 8.088C74.1356 8.08 74.2396 8.076 74.3196 8.076V9H71.0916V8.208C71.3156 8.208 71.4676 8.164 71.5476 8.076C71.6356 7.98 71.6756 7.852 71.6676 7.692C71.6596 7.532 71.6156 7.352 71.5356 7.152L71.2956 6.492L68.6916 6.54L68.4996 7.104C68.4596 7.208 68.3996 7.364 68.3196 7.572C68.2476 7.772 68.1796 7.94 68.1156 8.076C68.2436 8.06 68.3956 8.052 68.5716 8.052C68.7556 8.044 68.8876 8.04 68.9676 8.04V9H66.3996ZM68.9916 5.64H70.9956L70.4436 4.14C70.3396 3.852 70.2476 3.564 70.1676 3.276C70.0876 2.98 70.0276 2.72 69.9876 2.496H69.9756C69.9436 2.632 69.8956 2.836 69.8316 3.108C69.7676 3.38 69.6676 3.704 69.5316 4.08L68.9916 5.64ZM80.5267 3.312C80.5267 2.88 80.4667 2.524 80.3467 2.244C80.2267 1.956 80.0547 1.744 79.8307 1.608C79.6147 1.464 79.3547 1.396 79.0507 1.404H78.4747V7.032C78.4747 7.248 78.4707 7.456 78.4627 7.656C78.4547 7.856 78.4427 8.008 78.4267 8.112C78.5627 8.096 78.7347 8.088 78.9427 8.088C79.1587 8.08 79.3067 8.076 79.3867 8.076V9H75.8827V8.208C76.0667 8.2 76.2187 8.176 76.3387 8.136C76.4667 8.096 76.5627 8.004 76.6267 7.86C76.6987 7.716 76.7347 7.484 76.7347 7.164V1.416H76.1827C75.7267 1.424 75.3667 1.58 75.1027 1.884C74.8387 2.188 74.7067 2.664 74.7067 3.312H73.9147L73.9747 0.599999H81.2467L81.3187 3.312H80.5267ZM80.9308 9V8.172C81.1548 8.172 81.3348 8.108 81.4708 7.98C81.6068 7.852 81.7188 7.684 81.8068 7.476C81.9028 7.268 81.9948 7.044 82.0828 6.804L84.4228 0.383999H85.2628L87.8188 6.924C87.8668 7.044 87.9308 7.228 88.0108 7.476C88.0908 7.716 88.1388 7.928 88.1548 8.112C88.2908 8.096 88.4188 8.088 88.5388 8.088C88.6668 8.08 88.7708 8.076 88.8508 8.076V9H85.6228V8.208C85.8468 8.208 85.9988 8.164 86.0788 8.076C86.1668 7.98 86.2068 7.852 86.1988 7.692C86.1908 7.532 86.1468 7.352 86.0668 7.152L85.8268 6.492L83.2228 6.54L83.0308 7.104C82.9908 7.208 82.9308 7.364 82.8508 7.572C82.7788 7.772 82.7108 7.94 82.6468 8.076C82.7748 8.06 82.9268 8.052 83.1028 8.052C83.2868 8.044 83.4188 8.04 83.4988 8.04V9H80.9308ZM83.5228 5.64H85.5268L84.9748 4.14C84.8708 3.852 84.7788 3.564 84.6988 3.276C84.6188 2.98 84.5588 2.72 84.5188 2.496H84.5068C84.4748 2.632 84.4268 2.836 84.3628 3.108C84.2988 3.38 84.1988 3.704 84.0628 4.08L83.5228 5.64ZM93.7944 9.12C93.5224 8.456 93.2504 7.796 92.9784 7.14C92.7144 6.484 92.4464 5.828 92.1744 5.172C92.1104 5.02 92.0264 4.808 91.9224 4.536C91.8264 4.256 91.7224 3.936 91.6104 3.576C91.5064 3.216 91.4104 2.844 91.3224 2.46C91.3384 2.908 91.3504 3.332 91.3584 3.732C91.3664 4.124 91.3664 4.5 91.3584 4.86C91.3584 5.036 91.3584 5.216 91.3584 5.4C91.3584 5.584 91.3544 5.768 91.3464 5.952C91.3464 6.128 91.3464 6.308 91.3464 6.492C91.3464 6.668 91.3464 6.848 91.3464 7.032C91.3464 7.248 91.3384 7.456 91.3224 7.656C91.3144 7.856 91.3024 8.008 91.2864 8.112C91.4224 8.096 91.5864 8.088 91.7784 8.088C91.9784 8.08 92.1184 8.076 92.1984 8.076V9H89.4624V8.208C89.6464 8.2 89.7984 8.176 89.9184 8.136C90.0464 8.096 90.1424 8.004 90.2064 7.86C90.2784 7.716 90.3144 7.484 90.3144 7.164L90.3864 2.568C90.3944 2.352 90.4024 2.144 90.4104 1.944C90.4184 1.744 90.4264 1.592 90.4344 1.488C90.3064 1.496 90.1464 1.504 89.9544 1.512C89.7624 1.512 89.6224 1.516 89.5344 1.524V0.599999H92.1864L93.9984 5.244C94.0704 5.428 94.1504 5.644 94.2384 5.892C94.3264 6.132 94.4104 6.368 94.4904 6.6C94.5704 6.824 94.6304 7.004 94.6704 7.14H94.6824C94.7864 6.86 94.8824 6.588 94.9704 6.324C95.0584 6.06 95.1504 5.804 95.2464 5.556C95.5584 4.724 95.8664 3.896 96.1704 3.072C96.4824 2.248 96.7944 1.424 97.1064 0.599999H99.8784V1.392C99.7024 1.4 99.5464 1.424 99.4104 1.464C99.2744 1.504 99.1704 1.596 99.0984 1.74C99.0344 1.876 99.0064 2.108 99.0144 2.436L99.1944 7.032C99.2104 7.248 99.2104 7.456 99.1944 7.656C99.1784 7.856 99.1624 8.008 99.1464 8.112C99.2824 8.096 99.4464 8.088 99.6384 8.088C99.8384 8.08 99.9784 8.076 100.058 8.076V9H96.7224V8.208C96.9064 8.2 97.0624 8.176 97.1904 8.136C97.3264 8.096 97.4264 8.004 97.4904 7.86C97.5624 7.716 97.5904 7.484 97.5744 7.164L97.4784 4.62C97.4784 4.524 97.4704 4.36 97.4544 4.128C97.4384 3.888 97.4224 3.628 97.4064 3.348C97.3984 3.06 97.3904 2.792 97.3824 2.544C97.3584 2.6 97.3344 2.656 97.3104 2.712C97.2864 2.76 97.2664 2.812 97.2504 2.868L94.9104 9.12H93.7944Z" fill="#3F1E1F"/>
<path d="M100.918 9.142C100.795 9.142 100.683 9.12133 100.582 9.08C100.482 9.04 100.395 8.98333 100.322 8.91C100.249 8.83533 100.192 8.748 100.152 8.648C100.112 8.548 100.092 8.43867 100.092 8.32C100.092 8.20533 100.113 8.098 100.154 7.998C100.195 7.898 100.253 7.81 100.328 7.734C100.403 7.658 100.491 7.59867 100.592 7.556C100.693 7.512 100.803 7.49 100.922 7.49C101.042 7.49 101.152 7.512 101.252 7.556C101.352 7.59867 101.438 7.65867 101.51 7.736C101.583 7.812 101.639 7.9 101.678 8C101.718 8.1 101.738 8.20733 101.738 8.322C101.738 8.43533 101.717 8.542 101.674 8.642C101.633 8.74067 101.575 8.82733 101.5 8.902C101.425 8.97667 101.338 9.03533 101.238 9.078C101.139 9.12067 101.033 9.142 100.918 9.142ZM100.924 9.028C101.028 9.028 101.121 9.00933 101.204 8.972C101.287 8.93467 101.357 8.88333 101.416 8.818C101.475 8.75267 101.519 8.67733 101.55 8.592C101.582 8.50667 101.598 8.416 101.598 8.32C101.598 8.224 101.582 8.13333 101.55 8.048C101.518 7.96133 101.472 7.88533 101.412 7.82C101.353 7.75333 101.282 7.70133 101.198 7.664C101.115 7.62533 101.022 7.606 100.918 7.606C100.817 7.606 100.724 7.62533 100.64 7.664C100.556 7.70133 100.483 7.75333 100.422 7.82C100.362 7.88533 100.315 7.96133 100.282 8.048C100.25 8.13333 100.234 8.224 100.234 8.32C100.234 8.416 100.25 8.50667 100.282 8.592C100.314 8.67733 100.36 8.75267 100.42 8.818C100.48 8.88333 100.553 8.93467 100.638 8.972C100.723 9.00933 100.819 9.028 100.924 9.028ZM100.522 8.764V8.676C100.553 8.67333 100.576 8.66667 100.592 8.656C100.609 8.64533 100.618 8.61267 100.618 8.558V8.052C100.618 8.02533 100.619 8.00133 100.62 7.98C100.621 7.95733 100.623 7.94067 100.624 7.93L100.522 7.934V7.83C100.565 7.83 100.607 7.83 100.648 7.83C100.691 7.82867 100.733 7.828 100.774 7.828C100.817 7.828 100.859 7.828 100.9 7.828C101.017 7.828 101.111 7.85 101.18 7.894C101.251 7.93667 101.285 8.01133 101.282 8.118C101.281 8.15533 101.272 8.19133 101.256 8.226C101.241 8.26067 101.217 8.29133 101.184 8.318C101.152 8.34333 101.11 8.36333 101.058 8.378C101.075 8.38467 101.09 8.396 101.102 8.412C101.114 8.428 101.126 8.44533 101.138 8.464C101.178 8.52533 101.208 8.57133 101.228 8.602C101.248 8.63133 101.265 8.65067 101.28 8.66C101.295 8.66933 101.313 8.67467 101.336 8.676V8.764H101.126C101.11 8.752 101.093 8.73533 101.076 8.714C101.059 8.69267 101.041 8.66733 101.024 8.638C100.984 8.57133 100.955 8.52267 100.938 8.492C100.921 8.46133 100.909 8.44133 100.904 8.432C100.9 8.42133 100.895 8.41267 100.89 8.406C100.877 8.406 100.864 8.406 100.852 8.406C100.841 8.406 100.829 8.406 100.814 8.406V8.542C100.814 8.566 100.813 8.59 100.812 8.614C100.812 8.63667 100.812 8.65333 100.812 8.664L100.924 8.66V8.764H100.522ZM100.87 8.292C100.914 8.292 100.951 8.28467 100.98 8.27C101.011 8.25533 101.033 8.234 101.048 8.206C101.064 8.178 101.072 8.14467 101.072 8.106C101.072 8.054 101.061 8.01667 101.04 7.994C101.019 7.97 100.994 7.95533 100.966 7.95C100.938 7.94333 100.915 7.94 100.896 7.94C100.868 7.94 100.847 7.94733 100.834 7.962C100.821 7.97533 100.814 8.004 100.814 8.048V8.286C100.825 8.28867 100.834 8.29067 100.842 8.292C100.85 8.292 100.859 8.292 100.87 8.292Z" fill="#3F1E1F"/>
</svg>
